<svg width="532" height="720" viewBox="0 0 532 720" fill="none" xmlns="http://www.w3.org/2000/svg">
<rect width="532" height="720" fill="#664FBB"/>
<rect x="-0.5" y="0.5" width="531" height="39" transform="matrix(-1 8.74228e-08 8.74228e-08 1 531 680)" fill="white" fill-opacity="0.08"/>
<rect x="-0.5" y="0.5" width="531" height="39" transform="matrix(-1 8.74228e-08 8.74228e-08 1 531 680)" stroke="url(#paint0_linear_3814_6169)"/>
<path d="M76.4891 694.788L73.6191 704H72.3871L70.1051 697.07C70.0865 696.995 70.0631 696.921 70.0351 696.846C70.0071 696.762 69.9838 696.678 69.9651 696.594C69.9465 696.678 69.9278 696.762 69.9091 696.846C69.8905 696.921 69.8671 696.995 69.8391 697.07L67.5431 704H66.3111L63.4271 694.788H64.5751C64.8271 694.788 64.9811 694.891 65.0371 695.096L66.8571 701.368C66.8945 701.489 66.9271 701.62 66.9551 701.76C66.9831 701.891 67.0111 702.035 67.0391 702.194C67.0951 701.886 67.1651 701.611 67.2491 701.368L69.3491 695.096C69.3771 695.012 69.4285 694.942 69.5031 694.886C69.5871 694.821 69.6898 694.788 69.8111 694.788H70.2031C70.4365 694.788 70.5905 694.891 70.6651 695.096L72.7651 701.368C72.8025 701.489 72.8398 701.615 72.8771 701.746C72.9145 701.867 72.9425 702.003 72.9611 702.152C72.9985 702.003 73.0265 701.867 73.0451 701.746C73.0731 701.615 73.1058 701.489 73.1431 701.368L74.9771 695.096C74.9958 695.012 75.0471 694.942 75.1311 694.886C75.2151 694.821 75.3131 694.788 75.4251 694.788H76.4891ZM78.8826 697.448V704H77.6226V697.448H78.8826ZM79.1206 695.46C79.1206 695.693 79.0319 695.894 78.8546 696.062C78.6866 696.221 78.4906 696.3 78.2666 696.3C78.0239 696.3 77.8139 696.221 77.6366 696.062C77.4686 695.894 77.3846 695.693 77.3846 695.46C77.3846 695.227 77.4686 695.031 77.6366 694.872C77.8139 694.704 78.0239 694.62 78.2666 694.62C78.4906 694.62 78.6866 694.704 78.8546 694.872C79.0319 695.031 79.1206 695.227 79.1206 695.46ZM81.8594 698.4C82.1394 698.073 82.4521 697.817 82.7974 697.63C83.1428 697.434 83.5534 697.336 84.0294 697.336C84.7574 697.336 85.3034 697.565 85.6674 698.022C86.0408 698.479 86.2274 699.081 86.2274 699.828V704H84.9674V699.828C84.9674 699.352 84.8601 698.979 84.6454 698.708C84.4308 698.428 84.0994 698.288 83.6514 698.288C83.3248 698.288 83.0214 698.372 82.7414 698.54C82.4614 698.708 82.2001 698.927 81.9574 699.198V704H80.6974V697.448H81.4394C81.6168 697.448 81.7288 697.527 81.7754 697.686L81.8594 698.4ZM89.0919 698.4C89.3719 698.073 89.6845 697.817 90.0299 697.63C90.3752 697.434 90.7859 697.336 91.2619 697.336C91.9899 697.336 92.5359 697.565 92.8999 698.022C93.2732 698.479 93.4599 699.081 93.4599 699.828V704H92.1999V699.828C92.1999 699.352 92.0925 698.979 91.8779 698.708C91.6632 698.428 91.3319 698.288 90.8839 698.288C90.5572 698.288 90.2539 698.372 89.9739 698.54C89.6939 698.708 89.4325 698.927 89.1899 699.198V704H87.9299V697.448H88.6719C88.8492 697.448 88.9612 697.527 89.0079 697.686L89.0919 698.4ZM96.4783 697.448V704H95.2183V697.448H96.4783ZM96.7163 695.46C96.7163 695.693 96.6276 695.894 96.4503 696.062C96.2823 696.221 96.0863 696.3 95.8623 696.3C95.6196 696.3 95.4096 696.221 95.2323 696.062C95.0643 695.894 94.9803 695.693 94.9803 695.46C94.9803 695.227 95.0643 695.031 95.2323 694.872C95.4096 694.704 95.6196 694.62 95.8623 694.62C96.0863 694.62 96.2823 694.704 96.4503 694.872C96.6276 695.031 96.7163 695.227 96.7163 695.46ZM99.4551 698.4C99.7351 698.073 100.048 697.817 100.393 697.63C100.738 697.434 101.149 697.336 101.625 697.336C102.353 697.336 102.899 697.565 103.263 698.022C103.636 698.479 103.823 699.081 103.823 699.828V704H102.563V699.828C102.563 699.352 102.456 698.979 102.241 698.708C102.026 698.428 101.695 698.288 101.247 698.288C100.92 698.288 100.617 698.372 100.337 698.54C100.057 698.708 99.7958 698.927 99.5531 699.198V704H98.2931V697.448H99.0351C99.2125 697.448 99.3245 697.527 99.3711 697.686L99.4551 698.4ZM107.836 700.766C108.293 700.766 108.634 700.649 108.858 700.416C109.082 700.183 109.194 699.87 109.194 699.478C109.194 699.086 109.077 698.773 108.844 698.54C108.62 698.307 108.284 698.19 107.836 698.19C107.388 698.19 107.047 698.307 106.814 698.54C106.59 698.773 106.478 699.086 106.478 699.478C106.478 699.861 106.59 700.173 106.814 700.416C107.047 700.649 107.388 700.766 107.836 700.766ZM109.852 704.364C109.852 704.121 109.758 703.949 109.572 703.846C109.385 703.734 109.147 703.659 108.858 703.622C108.568 703.585 108.251 703.566 107.906 703.566C107.56 703.557 107.234 703.529 106.926 703.482C106.683 703.585 106.487 703.72 106.338 703.888C106.188 704.056 106.114 704.247 106.114 704.462C106.114 704.761 106.258 705.003 106.548 705.19C106.837 705.386 107.299 705.484 107.934 705.484C108.559 705.484 109.035 705.377 109.362 705.162C109.688 704.957 109.852 704.691 109.852 704.364ZM111.126 697.686V698.134C111.126 698.293 111.028 698.391 110.832 698.428L110.048 698.512C110.234 698.773 110.328 699.086 110.328 699.45C110.328 699.777 110.262 700.071 110.132 700.332C110.01 700.584 109.838 700.803 109.614 700.99C109.39 701.177 109.124 701.321 108.816 701.424C108.517 701.517 108.19 701.564 107.836 701.564C107.546 701.564 107.276 701.527 107.024 701.452C106.893 701.527 106.79 701.615 106.716 701.718C106.641 701.811 106.604 701.905 106.604 701.998C106.604 702.203 106.711 702.343 106.926 702.418C107.15 702.493 107.425 702.544 107.752 702.572C108.078 702.591 108.428 702.609 108.802 702.628C109.184 702.637 109.539 702.689 109.866 702.782C110.192 702.875 110.463 703.025 110.678 703.23C110.902 703.435 111.014 703.743 111.014 704.154C111.014 704.434 110.944 704.705 110.804 704.966C110.664 705.237 110.458 705.475 110.188 705.68C109.926 705.885 109.6 706.049 109.208 706.17C108.825 706.301 108.391 706.366 107.906 706.366C107.42 706.366 106.996 706.319 106.632 706.226C106.268 706.133 105.964 706.002 105.722 705.834C105.488 705.675 105.311 705.489 105.19 705.274C105.078 705.069 105.022 704.849 105.022 704.616C105.022 704.299 105.124 704.028 105.33 703.804C105.535 703.58 105.815 703.403 106.17 703.272C105.974 703.188 105.815 703.076 105.694 702.936C105.572 702.787 105.512 702.591 105.512 702.348C105.512 702.161 105.582 701.961 105.722 701.746C105.871 701.531 106.081 701.354 106.352 701.214C106.025 701.037 105.773 700.799 105.596 700.5C105.418 700.192 105.33 699.842 105.33 699.45C105.33 699.133 105.39 698.843 105.512 698.582C105.633 698.321 105.806 698.097 106.03 697.91C106.254 697.723 106.52 697.583 106.828 697.49C107.136 697.387 107.472 697.336 107.836 697.336C108.405 697.336 108.89 697.453 109.292 697.686H111.126ZM115.604 698.316C115.875 698.017 116.178 697.779 116.514 697.602C116.85 697.425 117.237 697.336 117.676 697.336C118.404 697.336 118.95 697.565 119.314 698.022C119.687 698.479 119.874 699.081 119.874 699.828V704H118.614V699.828C118.614 699.352 118.507 698.979 118.292 698.708C118.077 698.428 117.746 698.288 117.298 698.288C116.971 698.288 116.668 698.372 116.388 698.54C116.108 698.708 115.847 698.927 115.604 699.198V704H114.344V694.578H115.604V698.316ZM125.93 700.01C125.93 699.478 125.79 699.049 125.51 698.722C125.23 698.386 124.834 698.218 124.32 698.218C123.779 698.218 123.354 698.377 123.046 698.694C122.748 699.011 122.561 699.45 122.486 700.01H125.93ZM122.458 700.78C122.458 701.116 122.5 701.429 122.584 701.718C122.668 702.007 122.794 702.259 122.962 702.474C123.13 702.679 123.336 702.843 123.578 702.964C123.83 703.085 124.124 703.146 124.46 703.146C124.74 703.146 124.983 703.113 125.188 703.048C125.403 702.983 125.58 702.913 125.72 702.838C125.87 702.754 125.996 702.679 126.098 702.614C126.201 702.549 126.29 702.516 126.364 702.516C126.476 702.516 126.56 702.558 126.616 702.642L126.966 703.076C126.817 703.253 126.64 703.407 126.434 703.538C126.238 703.669 126.024 703.776 125.79 703.86C125.566 703.944 125.328 704.005 125.076 704.042C124.834 704.079 124.591 704.098 124.348 704.098C123.891 704.098 123.471 704.023 123.088 703.874C122.706 703.715 122.374 703.487 122.094 703.188C121.814 702.889 121.595 702.525 121.436 702.096C121.287 701.657 121.212 701.153 121.212 700.584C121.212 700.127 121.282 699.702 121.422 699.31C121.562 698.918 121.763 698.577 122.024 698.288C122.295 697.989 122.617 697.756 122.99 697.588C123.373 697.42 123.807 697.336 124.292 697.336C124.694 697.336 125.062 697.401 125.398 697.532C125.734 697.663 126.024 697.854 126.266 698.106C126.518 698.358 126.714 698.671 126.854 699.044C126.994 699.408 127.064 699.828 127.064 700.304C127.064 700.491 127.041 700.617 126.994 700.682C126.957 700.747 126.878 700.78 126.756 700.78H122.458ZM129.588 698.792C129.784 698.316 130.032 697.957 130.33 697.714C130.629 697.462 130.998 697.336 131.436 697.336C131.576 697.336 131.707 697.35 131.828 697.378C131.959 697.397 132.076 697.439 132.178 697.504L132.08 698.414C132.043 698.526 131.978 698.582 131.884 698.582C131.819 698.582 131.726 698.568 131.604 698.54C131.492 698.512 131.366 698.498 131.226 698.498C130.806 698.498 130.48 698.619 130.246 698.862C130.022 699.095 129.831 699.436 129.672 699.884V704H128.412V697.448H129.14C129.271 697.448 129.36 697.476 129.406 697.532C129.462 697.579 129.5 697.653 129.518 697.756L129.588 698.792ZM137.497 700.01C137.497 699.478 137.357 699.049 137.077 698.722C136.797 698.386 136.4 698.218 135.887 698.218C135.345 698.218 134.921 698.377 134.613 698.694C134.314 699.011 134.127 699.45 134.053 700.01H137.497ZM134.025 700.78C134.025 701.116 134.067 701.429 134.151 701.718C134.235 702.007 134.361 702.259 134.529 702.474C134.697 702.679 134.902 702.843 135.145 702.964C135.397 703.085 135.691 703.146 136.027 703.146C136.307 703.146 136.549 703.113 136.755 703.048C136.969 702.983 137.147 702.913 137.287 702.838C137.436 702.754 137.562 702.679 137.665 702.614C137.767 702.549 137.856 702.516 137.931 702.516C138.043 702.516 138.127 702.558 138.183 702.642L138.533 703.076C138.383 703.253 138.206 703.407 138.001 703.538C137.805 703.669 137.59 703.776 137.357 703.86C137.133 703.944 136.895 704.005 136.643 704.042C136.4 704.079 136.157 704.098 135.915 704.098C135.457 704.098 135.037 704.023 134.655 703.874C134.272 703.715 133.941 703.487 133.661 703.188C133.381 702.889 133.161 702.525 133.003 702.096C132.853 701.657 132.779 701.153 132.779 700.584C132.779 700.127 132.849 699.702 132.989 699.31C133.129 698.918 133.329 698.577 133.591 698.288C133.861 697.989 134.183 697.756 134.557 697.588C134.939 697.42 135.373 697.336 135.859 697.336C136.26 697.336 136.629 697.401 136.965 697.532C137.301 697.663 137.59 697.854 137.833 698.106C138.085 698.358 138.281 698.671 138.421 699.044C138.561 699.408 138.631 699.828 138.631 700.304C138.631 700.491 138.607 700.617 138.561 700.682C138.523 700.747 138.444 700.78 138.323 700.78H134.025ZM143.359 697.448V704H142.099V697.448H143.359ZM143.597 695.46C143.597 695.693 143.508 695.894 143.331 696.062C143.163 696.221 142.967 696.3 142.743 696.3C142.5 696.3 142.29 696.221 142.113 696.062C141.945 695.894 141.861 695.693 141.861 695.46C141.861 695.227 141.945 695.031 142.113 694.872C142.29 694.704 142.5 694.62 142.743 694.62C142.967 694.62 143.163 694.704 143.331 694.872C143.508 695.031 143.597 695.227 143.597 695.46ZM149.052 698.554C148.977 698.647 148.889 698.694 148.786 698.694C148.711 698.694 148.632 698.671 148.548 698.624C148.473 698.577 148.375 698.526 148.254 698.47C148.142 698.414 148.007 698.363 147.848 698.316C147.689 698.269 147.498 698.246 147.274 698.246C146.891 698.246 146.593 698.335 146.378 698.512C146.173 698.68 146.07 698.895 146.07 699.156C146.07 699.38 146.149 699.557 146.308 699.688C146.476 699.809 146.686 699.917 146.938 700.01C147.19 700.103 147.456 700.192 147.736 700.276C148.025 700.36 148.296 700.472 148.548 700.612C148.8 700.743 149.005 700.92 149.164 701.144C149.332 701.359 149.416 701.643 149.416 701.998C149.416 702.297 149.36 702.577 149.248 702.838C149.145 703.09 148.987 703.309 148.772 703.496C148.557 703.683 148.291 703.832 147.974 703.944C147.666 704.047 147.311 704.098 146.91 704.098C146.462 704.098 146.047 704.023 145.664 703.874C145.281 703.725 144.959 703.533 144.698 703.3L144.992 702.852C145.039 702.796 145.081 702.754 145.118 702.726C145.165 702.689 145.235 702.67 145.328 702.67C145.412 702.67 145.496 702.703 145.58 702.768C145.664 702.824 145.767 702.889 145.888 702.964C146.009 703.029 146.154 703.095 146.322 703.16C146.499 703.216 146.714 703.244 146.966 703.244C147.414 703.244 147.736 703.141 147.932 702.936C148.137 702.731 148.24 702.488 148.24 702.208C148.24 701.975 148.156 701.793 147.988 701.662C147.82 701.522 147.61 701.405 147.358 701.312C147.115 701.219 146.849 701.13 146.56 701.046C146.271 700.962 146 700.85 145.748 700.71C145.505 700.57 145.3 700.388 145.132 700.164C144.964 699.931 144.88 699.627 144.88 699.254C144.88 699.002 144.931 698.759 145.034 698.526C145.137 698.293 145.286 698.092 145.482 697.924C145.687 697.747 145.935 697.607 146.224 697.504C146.523 697.392 146.863 697.336 147.246 697.336C147.685 697.336 148.077 697.406 148.422 697.546C148.767 697.677 149.066 697.863 149.318 698.106L149.052 698.554ZM157.225 700.01C157.225 699.478 157.085 699.049 156.805 698.722C156.525 698.386 156.129 698.218 155.615 698.218C155.074 698.218 154.649 698.377 154.341 698.694C154.043 699.011 153.856 699.45 153.781 700.01H157.225ZM153.753 700.78C153.753 701.116 153.795 701.429 153.879 701.718C153.963 702.007 154.089 702.259 154.257 702.474C154.425 702.679 154.631 702.843 154.873 702.964C155.125 703.085 155.419 703.146 155.755 703.146C156.035 703.146 156.278 703.113 156.483 703.048C156.698 702.983 156.875 702.913 157.015 702.838C157.165 702.754 157.291 702.679 157.393 702.614C157.496 702.549 157.585 702.516 157.659 702.516C157.771 702.516 157.855 702.558 157.911 702.642L158.261 703.076C158.112 703.253 157.935 703.407 157.729 703.538C157.533 703.669 157.319 703.776 157.085 703.86C156.861 703.944 156.623 704.005 156.371 704.042C156.129 704.079 155.886 704.098 155.643 704.098C155.186 704.098 154.766 704.023 154.383 703.874C154.001 703.715 153.669 703.487 153.389 703.188C153.109 702.889 152.89 702.525 152.731 702.096C152.582 701.657 152.507 701.153 152.507 700.584C152.507 700.127 152.577 699.702 152.717 699.31C152.857 698.918 153.058 698.577 153.319 698.288C153.59 697.989 153.912 697.756 154.285 697.588C154.668 697.42 155.102 697.336 155.587 697.336C155.989 697.336 156.357 697.401 156.693 697.532C157.029 697.663 157.319 697.854 157.561 698.106C157.813 698.358 158.009 698.671 158.149 699.044C158.289 699.408 158.359 699.828 158.359 700.304C158.359 700.491 158.336 700.617 158.289 700.682C158.252 700.747 158.173 700.78 158.051 700.78H153.753ZM163.235 701.06C162.722 701.079 162.288 701.121 161.933 701.186C161.579 701.251 161.289 701.34 161.065 701.452C160.841 701.555 160.678 701.681 160.575 701.83C160.473 701.97 160.421 702.129 160.421 702.306C160.421 702.642 160.519 702.889 160.715 703.048C160.921 703.197 161.168 703.272 161.457 703.272C161.859 703.272 162.195 703.193 162.465 703.034C162.736 702.875 162.993 702.665 163.235 702.404V701.06ZM159.539 698.358C160.258 697.677 161.126 697.336 162.143 697.336C162.899 697.336 163.473 697.565 163.865 698.022C164.267 698.479 164.467 699.077 164.467 699.814V704H163.921C163.791 704 163.693 703.986 163.627 703.958C163.571 703.921 163.52 703.841 163.473 703.72L163.375 703.09C163.03 703.417 162.689 703.669 162.353 703.846C162.017 704.014 161.593 704.098 161.079 704.098C160.818 704.098 160.575 704.065 160.351 704C160.127 703.925 159.931 703.818 159.763 703.678C159.595 703.538 159.465 703.361 159.371 703.146C159.278 702.922 159.231 702.661 159.231 702.362C159.231 702.11 159.301 701.863 159.441 701.62C159.581 701.377 159.805 701.163 160.113 700.976C160.431 700.789 160.841 700.635 161.345 700.514C161.859 700.393 162.489 700.323 163.235 700.304V699.814C163.235 698.797 162.82 698.288 161.989 698.288C161.719 698.288 161.49 698.325 161.303 698.4C161.117 698.465 160.953 698.545 160.813 698.638C160.683 698.722 160.566 698.801 160.463 698.876C160.361 698.941 160.253 698.974 160.141 698.974C160.048 698.974 159.969 698.955 159.903 698.918C159.847 698.871 159.801 698.815 159.763 698.75L159.539 698.358ZM170.038 698.554C169.964 698.647 169.875 698.694 169.772 698.694C169.698 698.694 169.618 698.671 169.534 698.624C169.46 698.577 169.362 698.526 169.24 698.47C169.128 698.414 168.993 698.363 168.834 698.316C168.676 698.269 168.484 698.246 168.26 698.246C167.878 698.246 167.579 698.335 167.364 698.512C167.159 698.68 167.056 698.895 167.056 699.156C167.056 699.38 167.136 699.557 167.294 699.688C167.462 699.809 167.672 699.917 167.924 700.01C168.176 700.103 168.442 700.192 168.722 700.276C169.012 700.36 169.282 700.472 169.534 700.612C169.786 700.743 169.992 700.92 170.15 701.144C170.318 701.359 170.402 701.643 170.402 701.998C170.402 702.297 170.346 702.577 170.234 702.838C170.132 703.09 169.973 703.309 169.758 703.496C169.544 703.683 169.278 703.832 168.96 703.944C168.652 704.047 168.298 704.098 167.896 704.098C167.448 704.098 167.033 704.023 166.65 703.874C166.268 703.725 165.946 703.533 165.684 703.3L165.978 702.852C166.025 702.796 166.067 702.754 166.104 702.726C166.151 702.689 166.221 702.67 166.314 702.67C166.398 702.67 166.482 702.703 166.566 702.768C166.65 702.824 166.753 702.889 166.874 702.964C166.996 703.029 167.14 703.095 167.308 703.16C167.486 703.216 167.7 703.244 167.952 703.244C168.4 703.244 168.722 703.141 168.918 702.936C169.124 702.731 169.226 702.488 169.226 702.208C169.226 701.975 169.142 701.793 168.974 701.662C168.806 701.522 168.596 701.405 168.344 701.312C168.102 701.219 167.836 701.13 167.546 701.046C167.257 700.962 166.986 700.85 166.734 700.71C166.492 700.57 166.286 700.388 166.118 700.164C165.95 699.931 165.866 699.627 165.866 699.254C165.866 699.002 165.918 698.759 166.02 698.526C166.123 698.293 166.272 698.092 166.468 697.924C166.674 697.747 166.921 697.607 167.21 697.504C167.509 697.392 167.85 697.336 168.232 697.336C168.671 697.336 169.063 697.406 169.408 697.546C169.754 697.677 170.052 697.863 170.304 698.106L170.038 698.554ZM177.533 697.448L173.879 705.932C173.832 706.025 173.781 706.095 173.725 706.142C173.669 706.189 173.576 706.212 173.445 706.212H172.507L173.711 703.608L171.023 697.448H172.115C172.227 697.448 172.311 697.471 172.367 697.518C172.423 697.565 172.465 697.621 172.493 697.686L174.159 701.732C174.243 701.919 174.304 702.115 174.341 702.32C174.388 702.217 174.425 702.119 174.453 702.026C174.481 701.923 174.518 701.821 174.565 701.718L176.161 697.686C176.189 697.611 176.236 697.555 176.301 697.518C176.376 697.471 176.45 697.448 176.525 697.448H177.533ZM179.752 697.322C179.752 697.789 179.747 698.204 179.738 698.568C179.728 698.923 179.714 699.259 179.696 699.576C179.677 699.884 179.654 700.187 179.626 700.486C179.607 700.775 179.584 701.079 179.556 701.396H178.856C178.828 701.079 178.795 700.775 178.758 700.486C178.73 700.197 178.706 699.893 178.688 699.576C178.669 699.259 178.65 698.923 178.632 698.568C178.622 698.204 178.618 697.789 178.618 697.322V695.558H179.752V697.322ZM179.206 704C178.72 704 178.478 703.753 178.478 703.258C178.478 702.987 178.538 702.796 178.66 702.684C178.79 702.563 178.972 702.502 179.206 702.502C179.439 702.502 179.616 702.563 179.738 702.684C179.859 702.796 179.92 702.987 179.92 703.258C179.92 703.753 179.682 704 179.206 704Z" fill="white"/>
<path d="M248.177 699.212C248.887 699.212 249.423 699.049 249.787 698.722C250.151 698.395 250.333 697.966 250.333 697.434C250.333 696.342 249.633 695.796 248.233 695.796H246.903V699.212H248.177ZM252.489 704H251.271C251.15 704 251.043 703.981 250.949 703.944C250.865 703.897 250.8 703.823 250.753 703.72L248.429 700.472C248.355 700.369 248.275 700.295 248.191 700.248C248.117 700.201 247.991 700.178 247.813 700.178H246.903V704H245.545V694.788H248.233C249.419 694.788 250.282 695.017 250.823 695.474C251.374 695.922 251.649 696.543 251.649 697.336C251.649 697.999 251.449 698.559 251.047 699.016C250.646 699.464 250.086 699.767 249.367 699.926C249.461 699.973 249.549 700.033 249.633 700.108C249.727 700.183 249.806 700.271 249.871 700.374L252.489 704ZM257.796 700.01C257.796 699.478 257.656 699.049 257.376 698.722C257.096 698.386 256.699 698.218 256.186 698.218C255.644 698.218 255.22 698.377 254.912 698.694C254.613 699.011 254.426 699.45 254.352 700.01H257.796ZM254.324 700.78C254.324 701.116 254.366 701.429 254.45 701.718C254.534 702.007 254.66 702.259 254.828 702.474C254.996 702.679 255.201 702.843 255.444 702.964C255.696 703.085 255.99 703.146 256.326 703.146C256.606 703.146 256.848 703.113 257.054 703.048C257.268 702.983 257.446 702.913 257.586 702.838C257.735 702.754 257.861 702.679 257.964 702.614C258.066 702.549 258.155 702.516 258.23 702.516C258.342 702.516 258.426 702.558 258.482 702.642L258.832 703.076C258.682 703.253 258.505 703.407 258.3 703.538C258.104 703.669 257.889 703.776 257.656 703.86C257.432 703.944 257.194 704.005 256.942 704.042C256.699 704.079 256.456 704.098 256.214 704.098C255.756 704.098 255.336 704.023 254.954 703.874C254.571 703.715 254.24 703.487 253.96 703.188C253.68 702.889 253.46 702.525 253.302 702.096C253.152 701.657 253.078 701.153 253.078 700.584C253.078 700.127 253.148 699.702 253.288 699.31C253.428 698.918 253.628 698.577 253.89 698.288C254.16 697.989 254.482 697.756 254.856 697.588C255.238 697.42 255.672 697.336 256.158 697.336C256.559 697.336 256.928 697.401 257.264 697.532C257.6 697.663 257.889 697.854 258.132 698.106C258.384 698.358 258.58 698.671 258.72 699.044C258.86 699.408 258.93 699.828 258.93 700.304C258.93 700.491 258.906 700.617 258.86 700.682C258.822 700.747 258.743 700.78 258.622 700.78H254.324ZM263.806 701.06C263.292 701.079 262.858 701.121 262.504 701.186C262.149 701.251 261.86 701.34 261.636 701.452C261.412 701.555 261.248 701.681 261.146 701.83C261.043 701.97 260.992 702.129 260.992 702.306C260.992 702.642 261.09 702.889 261.286 703.048C261.491 703.197 261.738 703.272 262.028 703.272C262.429 703.272 262.765 703.193 263.036 703.034C263.306 702.875 263.563 702.665 263.806 702.404V701.06ZM260.11 698.358C260.828 697.677 261.696 697.336 262.714 697.336C263.47 697.336 264.044 697.565 264.436 698.022C264.837 698.479 265.038 699.077 265.038 699.814V704H264.492C264.361 704 264.263 703.986 264.198 703.958C264.142 703.921 264.09 703.841 264.044 703.72L263.946 703.09C263.6 703.417 263.26 703.669 262.924 703.846C262.588 704.014 262.163 704.098 261.65 704.098C261.388 704.098 261.146 704.065 260.922 704C260.698 703.925 260.502 703.818 260.334 703.678C260.166 703.538 260.035 703.361 259.942 703.146C259.848 702.922 259.802 702.661 259.802 702.362C259.802 702.11 259.872 701.863 260.012 701.62C260.152 701.377 260.376 701.163 260.684 700.976C261.001 700.789 261.412 700.635 261.916 700.514C262.429 700.393 263.059 700.323 263.806 700.304V699.814C263.806 698.797 263.39 698.288 262.56 698.288C262.289 698.288 262.06 698.325 261.874 698.4C261.687 698.465 261.524 698.545 261.384 698.638C261.253 698.722 261.136 698.801 261.034 698.876C260.931 698.941 260.824 698.974 260.712 698.974C260.618 698.974 260.539 698.955 260.474 698.918C260.418 698.871 260.371 698.815 260.334 698.75L260.11 698.358ZM268.019 694.578V704H266.759V694.578H268.019ZM273.118 702.404C273.323 702.684 273.542 702.88 273.776 702.992C274.018 703.104 274.289 703.16 274.588 703.16C275.176 703.16 275.628 702.945 275.946 702.516C276.263 702.087 276.422 701.475 276.422 700.682C276.422 699.833 276.277 699.221 275.988 698.848C275.708 698.475 275.316 698.288 274.812 698.288C274.448 698.288 274.126 698.377 273.846 698.554C273.575 698.722 273.332 698.96 273.118 699.268V702.404ZM273.034 698.456C273.304 698.111 273.622 697.84 273.986 697.644C274.35 697.439 274.765 697.336 275.232 697.336C275.988 697.336 276.59 697.621 277.038 698.19C277.486 698.759 277.71 699.59 277.71 700.682C277.71 701.158 277.644 701.606 277.514 702.026C277.383 702.437 277.196 702.796 276.954 703.104C276.711 703.412 276.412 703.655 276.058 703.832C275.712 704.009 275.316 704.098 274.868 704.098C274.476 704.098 274.14 704.033 273.86 703.902C273.58 703.762 273.332 703.571 273.118 703.328V706.212H271.858V697.448H272.6C272.777 697.448 272.889 697.527 272.936 697.686L273.034 698.456ZM281.917 697.336C282.393 697.336 282.827 697.415 283.219 697.574C283.611 697.733 283.943 697.961 284.213 698.26C284.484 698.549 284.694 698.904 284.843 699.324C284.993 699.735 285.067 700.197 285.067 700.71C285.067 701.233 284.993 701.704 284.843 702.124C284.694 702.535 284.484 702.889 284.213 703.188C283.943 703.477 283.611 703.701 283.219 703.86C282.827 704.019 282.393 704.098 281.917 704.098C281.432 704.098 280.993 704.019 280.601 703.86C280.209 703.701 279.878 703.477 279.607 703.188C279.337 702.889 279.127 702.535 278.977 702.124C278.828 701.704 278.753 701.233 278.753 700.71C278.753 700.197 278.828 699.735 278.977 699.324C279.127 698.904 279.337 698.549 279.607 698.26C279.878 697.961 280.209 697.733 280.601 697.574C280.993 697.415 281.432 697.336 281.917 697.336ZM281.917 703.146C282.543 703.146 283.009 702.936 283.317 702.516C283.625 702.087 283.779 701.489 283.779 700.724C283.779 699.94 283.625 699.338 283.317 698.918C283.009 698.498 282.543 698.288 281.917 698.288C281.273 698.288 280.797 698.498 280.489 698.918C280.191 699.338 280.041 699.94 280.041 700.724C280.041 701.489 280.191 702.087 280.489 702.516C280.797 702.936 281.273 703.146 281.917 703.146ZM287.719 694.578V700.08H288.013C288.106 700.08 288.181 700.066 288.237 700.038C288.293 700.01 288.354 699.959 288.419 699.884L290.407 697.686C290.463 697.611 290.524 697.555 290.589 697.518C290.654 697.471 290.748 697.448 290.869 697.448H292.031L289.679 699.996C289.558 700.164 289.422 700.285 289.273 700.36C289.357 700.407 289.432 700.467 289.497 700.542C289.572 700.617 289.637 700.696 289.693 700.78L292.171 704H291.051C290.948 704 290.86 703.986 290.785 703.958C290.71 703.93 290.64 703.869 290.575 703.776L288.531 701.116C288.466 701.013 288.4 700.948 288.335 700.92C288.279 700.892 288.186 700.878 288.055 700.878H287.719V704H286.459V694.578H287.719ZM297.458 700.01C297.458 699.478 297.318 699.049 297.038 698.722C296.758 698.386 296.361 698.218 295.848 698.218C295.306 698.218 294.882 698.377 294.574 698.694C294.275 699.011 294.088 699.45 294.014 700.01H297.458ZM293.986 700.78C293.986 701.116 294.028 701.429 294.112 701.718C294.196 702.007 294.322 702.259 294.49 702.474C294.658 702.679 294.863 702.843 295.106 702.964C295.358 703.085 295.652 703.146 295.988 703.146C296.268 703.146 296.51 703.113 296.716 703.048C296.93 702.983 297.108 702.913 297.248 702.838C297.397 702.754 297.523 702.679 297.626 702.614C297.728 702.549 297.817 702.516 297.892 702.516C298.004 702.516 298.088 702.558 298.144 702.642L298.494 703.076C298.344 703.253 298.167 703.407 297.962 703.538C297.766 703.669 297.551 703.776 297.318 703.86C297.094 703.944 296.856 704.005 296.604 704.042C296.361 704.079 296.118 704.098 295.876 704.098C295.418 704.098 294.998 704.023 294.616 703.874C294.233 703.715 293.902 703.487 293.622 703.188C293.342 702.889 293.122 702.525 292.964 702.096C292.814 701.657 292.74 701.153 292.74 700.584C292.74 700.127 292.81 699.702 292.95 699.31C293.09 698.918 293.29 698.577 293.552 698.288C293.822 697.989 294.144 697.756 294.518 697.588C294.9 697.42 295.334 697.336 295.82 697.336C296.221 697.336 296.59 697.401 296.926 697.532C297.262 697.663 297.551 697.854 297.794 698.106C298.046 698.358 298.242 698.671 298.382 699.044C298.522 699.408 298.592 699.828 298.592 700.304C298.592 700.491 298.568 700.617 298.522 700.682C298.484 700.747 298.405 700.78 298.284 700.78H293.986ZM301.116 698.792C301.312 698.316 301.559 697.957 301.858 697.714C302.156 697.462 302.525 697.336 302.964 697.336C303.104 697.336 303.234 697.35 303.356 697.378C303.486 697.397 303.603 697.439 303.706 697.504L303.608 698.414C303.57 698.526 303.505 698.582 303.412 698.582C303.346 698.582 303.253 698.568 303.132 698.54C303.02 698.512 302.894 698.498 302.754 698.498C302.334 698.498 302.007 698.619 301.774 698.862C301.55 699.095 301.358 699.436 301.2 699.884V704H299.94V697.448H300.668C300.798 697.448 300.887 697.476 300.934 697.532C300.99 697.579 301.027 697.653 301.046 697.756L301.116 698.792ZM304.586 705.554C304.539 705.507 304.516 705.451 304.516 705.386C304.516 705.33 304.544 705.274 304.6 705.218C304.703 705.115 304.833 704.952 304.992 704.728C305.151 704.513 305.258 704.261 305.314 703.972C305.249 704 305.174 704.005 305.09 703.986C304.903 703.949 304.749 703.86 304.628 703.72C304.507 703.58 304.446 703.403 304.446 703.188C304.446 702.973 304.521 702.796 304.67 702.656C304.819 702.516 305.011 702.446 305.244 702.446C305.524 702.446 305.734 702.535 305.874 702.712C306.014 702.889 306.084 703.113 306.084 703.384C306.084 703.776 305.977 704.187 305.762 704.616C305.547 705.055 305.23 705.437 304.81 705.764L304.586 705.554ZM310.864 698.792C311.06 698.316 311.307 697.957 311.606 697.714C311.904 697.462 312.273 697.336 312.712 697.336C312.852 697.336 312.982 697.35 313.104 697.378C313.234 697.397 313.351 697.439 313.454 697.504L313.356 698.414C313.318 698.526 313.253 698.582 313.16 698.582C313.094 698.582 313.001 698.568 312.88 698.54C312.768 698.512 312.642 698.498 312.502 698.498C312.082 698.498 311.755 698.619 311.522 698.862C311.298 699.095 311.106 699.436 310.948 699.884V704H309.688V697.448H310.416C310.546 697.448 310.635 697.476 310.682 697.532C310.738 697.579 310.775 697.653 310.794 697.756L310.864 698.792ZM318.772 700.01C318.772 699.478 318.632 699.049 318.352 698.722C318.072 698.386 317.675 698.218 317.162 698.218C316.621 698.218 316.196 698.377 315.888 698.694C315.589 699.011 315.403 699.45 315.328 700.01H318.772ZM315.3 700.78C315.3 701.116 315.342 701.429 315.426 701.718C315.51 702.007 315.636 702.259 315.804 702.474C315.972 702.679 316.177 702.843 316.42 702.964C316.672 703.085 316.966 703.146 317.302 703.146C317.582 703.146 317.825 703.113 318.03 703.048C318.245 702.983 318.422 702.913 318.562 702.838C318.711 702.754 318.837 702.679 318.94 702.614C319.043 702.549 319.131 702.516 319.206 702.516C319.318 702.516 319.402 702.558 319.458 702.642L319.808 703.076C319.659 703.253 319.481 703.407 319.276 703.538C319.08 703.669 318.865 703.776 318.632 703.86C318.408 703.944 318.17 704.005 317.918 704.042C317.675 704.079 317.433 704.098 317.19 704.098C316.733 704.098 316.313 704.023 315.93 703.874C315.547 703.715 315.216 703.487 314.936 703.188C314.656 702.889 314.437 702.525 314.278 702.096C314.129 701.657 314.054 701.153 314.054 700.584C314.054 700.127 314.124 699.702 314.264 699.31C314.404 698.918 314.605 698.577 314.866 698.288C315.137 697.989 315.459 697.756 315.832 697.588C316.215 697.42 316.649 697.336 317.134 697.336C317.535 697.336 317.904 697.401 318.24 697.532C318.576 697.663 318.865 697.854 319.108 698.106C319.36 698.358 319.556 698.671 319.696 699.044C319.836 699.408 319.906 699.828 319.906 700.304C319.906 700.491 319.883 700.617 319.836 700.682C319.799 700.747 319.719 700.78 319.598 700.78H315.3ZM324.782 701.06C324.269 701.079 323.835 701.121 323.48 701.186C323.125 701.251 322.836 701.34 322.612 701.452C322.388 701.555 322.225 701.681 322.122 701.83C322.019 701.97 321.968 702.129 321.968 702.306C321.968 702.642 322.066 702.889 322.262 703.048C322.467 703.197 322.715 703.272 323.004 703.272C323.405 703.272 323.741 703.193 324.012 703.034C324.283 702.875 324.539 702.665 324.782 702.404V701.06ZM321.086 698.358C321.805 697.677 322.673 697.336 323.69 697.336C324.446 697.336 325.02 697.565 325.412 698.022C325.813 698.479 326.014 699.077 326.014 699.814V704H325.468C325.337 704 325.239 703.986 325.174 703.958C325.118 703.921 325.067 703.841 325.02 703.72L324.922 703.09C324.577 703.417 324.236 703.669 323.9 703.846C323.564 704.014 323.139 704.098 322.626 704.098C322.365 704.098 322.122 704.065 321.898 704C321.674 703.925 321.478 703.818 321.31 703.678C321.142 703.538 321.011 703.361 320.918 703.146C320.825 702.922 320.778 702.661 320.778 702.362C320.778 702.11 320.848 701.863 320.988 701.62C321.128 701.377 321.352 701.163 321.66 700.976C321.977 700.789 322.388 700.635 322.892 700.514C323.405 700.393 324.035 700.323 324.782 700.304V699.814C324.782 698.797 324.367 698.288 323.536 698.288C323.265 698.288 323.037 698.325 322.85 698.4C322.663 698.465 322.5 698.545 322.36 698.638C322.229 698.722 322.113 698.801 322.01 698.876C321.907 698.941 321.8 698.974 321.688 698.974C321.595 698.974 321.515 698.955 321.45 698.918C321.394 698.871 321.347 698.815 321.31 698.75L321.086 698.358ZM328.995 694.578V704H327.735V694.578H328.995ZM337.426 698.638C337.361 698.731 337.277 698.778 337.174 698.778C337.099 698.778 337.025 698.755 336.95 698.708C336.875 698.652 336.777 698.591 336.656 698.526C336.544 698.461 336.404 698.405 336.236 698.358C336.077 698.302 335.881 698.274 335.648 698.274C335.023 698.274 334.551 698.493 334.234 698.932C333.917 699.361 333.758 699.954 333.758 700.71C333.758 701.503 333.921 702.11 334.248 702.53C334.584 702.95 335.037 703.16 335.606 703.16C335.877 703.16 336.096 703.127 336.264 703.062C336.441 702.997 336.586 702.922 336.698 702.838C336.819 702.754 336.917 702.679 336.992 702.614C337.076 702.549 337.16 702.516 337.244 702.516C337.356 702.516 337.435 702.558 337.482 702.642L337.832 703.076C337.533 703.431 337.165 703.692 336.726 703.86C336.297 704.019 335.844 704.098 335.368 704.098C334.957 704.098 334.575 704.023 334.22 703.874C333.865 703.715 333.557 703.491 333.296 703.202C333.044 702.913 332.843 702.558 332.694 702.138C332.545 701.718 332.47 701.242 332.47 700.71C332.47 700.225 332.535 699.777 332.666 699.366C332.806 698.955 333.007 698.601 333.268 698.302C333.529 697.994 333.851 697.756 334.234 697.588C334.626 697.42 335.074 697.336 335.578 697.336C336.054 697.336 336.469 697.411 336.824 697.56C337.179 697.709 337.491 697.919 337.762 698.19L337.426 698.638ZM341.8 697.336C342.276 697.336 342.71 697.415 343.102 697.574C343.494 697.733 343.825 697.961 344.096 698.26C344.367 698.549 344.577 698.904 344.726 699.324C344.875 699.735 344.95 700.197 344.95 700.71C344.95 701.233 344.875 701.704 344.726 702.124C344.577 702.535 344.367 702.889 344.096 703.188C343.825 703.477 343.494 703.701 343.102 703.86C342.71 704.019 342.276 704.098 341.8 704.098C341.315 704.098 340.876 704.019 340.484 703.86C340.092 703.701 339.761 703.477 339.49 703.188C339.219 702.889 339.009 702.535 338.86 702.124C338.711 701.704 338.636 701.233 338.636 700.71C338.636 700.197 338.711 699.735 338.86 699.324C339.009 698.904 339.219 698.549 339.49 698.26C339.761 697.961 340.092 697.733 340.484 697.574C340.876 697.415 341.315 697.336 341.8 697.336ZM341.8 703.146C342.425 703.146 342.892 702.936 343.2 702.516C343.508 702.087 343.662 701.489 343.662 700.724C343.662 699.94 343.508 699.338 343.2 698.918C342.892 698.498 342.425 698.288 341.8 698.288C341.156 698.288 340.68 698.498 340.372 698.918C340.073 699.338 339.924 699.94 339.924 700.724C339.924 701.489 340.073 702.087 340.372 702.516C340.68 702.936 341.156 703.146 341.8 703.146ZM346.342 704V697.448H347.084C347.261 697.448 347.373 697.527 347.42 697.686L347.504 698.372C347.737 698.064 348.003 697.817 348.302 697.63C348.601 697.434 348.946 697.336 349.338 697.336C349.786 697.336 350.15 697.462 350.43 697.714C350.71 697.957 350.906 698.293 351.018 698.722C351.205 698.246 351.489 697.896 351.872 697.672C352.255 697.448 352.665 697.336 353.104 697.336C353.804 697.336 354.345 697.555 354.728 697.994C355.12 698.423 355.316 699.035 355.316 699.828V704H354.056V699.828C354.056 698.801 353.636 698.288 352.796 698.288C352.441 698.288 352.129 698.419 351.858 698.68C351.587 698.941 351.452 699.324 351.452 699.828V704H350.192V699.828C350.192 698.801 349.795 698.288 349.002 698.288C348.722 698.288 348.465 698.367 348.232 698.526C347.999 698.675 347.789 698.885 347.602 699.156V704H346.342ZM358.266 702.404C358.471 702.684 358.691 702.88 358.924 702.992C359.167 703.104 359.437 703.16 359.736 703.16C360.324 703.16 360.777 702.945 361.094 702.516C361.411 702.087 361.57 701.475 361.57 700.682C361.57 699.833 361.425 699.221 361.136 698.848C360.856 698.475 360.464 698.288 359.96 698.288C359.596 698.288 359.274 698.377 358.994 698.554C358.723 698.722 358.481 698.96 358.266 699.268V702.404ZM358.182 698.456C358.453 698.111 358.77 697.84 359.134 697.644C359.498 697.439 359.913 697.336 360.38 697.336C361.136 697.336 361.738 697.621 362.186 698.19C362.634 698.759 362.858 699.59 362.858 700.682C362.858 701.158 362.793 701.606 362.662 702.026C362.531 702.437 362.345 702.796 362.102 703.104C361.859 703.412 361.561 703.655 361.206 703.832C360.861 704.009 360.464 704.098 360.016 704.098C359.624 704.098 359.288 704.033 359.008 703.902C358.728 703.762 358.481 703.571 358.266 703.328V706.212H357.006V697.448H357.748C357.925 697.448 358.037 697.527 358.084 697.686L358.182 698.456ZM368.62 700.01C368.62 699.478 368.48 699.049 368.2 698.722C367.92 698.386 367.523 698.218 367.01 698.218C366.468 698.218 366.044 698.377 365.736 698.694C365.437 699.011 365.25 699.45 365.176 700.01H368.62ZM365.148 700.78C365.148 701.116 365.19 701.429 365.274 701.718C365.358 702.007 365.484 702.259 365.652 702.474C365.82 702.679 366.025 702.843 366.268 702.964C366.52 703.085 366.814 703.146 367.15 703.146C367.43 703.146 367.672 703.113 367.878 703.048C368.092 702.983 368.27 702.913 368.41 702.838C368.559 702.754 368.685 702.679 368.788 702.614C368.89 702.549 368.979 702.516 369.054 702.516C369.166 702.516 369.25 702.558 369.306 702.642L369.656 703.076C369.506 703.253 369.329 703.407 369.124 703.538C368.928 703.669 368.713 703.776 368.48 703.86C368.256 703.944 368.018 704.005 367.766 704.042C367.523 704.079 367.28 704.098 367.038 704.098C366.58 704.098 366.16 704.023 365.778 703.874C365.395 703.715 365.064 703.487 364.784 703.188C364.504 702.889 364.284 702.525 364.126 702.096C363.976 701.657 363.902 701.153 363.902 700.584C363.902 700.127 363.972 699.702 364.112 699.31C364.252 698.918 364.452 698.577 364.714 698.288C364.984 697.989 365.306 697.756 365.68 697.588C366.062 697.42 366.496 697.336 366.982 697.336C367.383 697.336 367.752 697.401 368.088 697.532C368.424 697.663 368.713 697.854 368.956 698.106C369.208 698.358 369.404 698.671 369.544 699.044C369.684 699.408 369.754 699.828 369.754 700.304C369.754 700.491 369.73 700.617 369.684 700.682C369.646 700.747 369.567 700.78 369.446 700.78H365.148ZM373.146 704.098C372.614 704.098 372.208 703.953 371.928 703.664C371.648 703.375 371.508 702.959 371.508 702.418V698.47H370.752C370.677 698.47 370.612 698.447 370.556 698.4C370.5 698.353 370.472 698.293 370.472 698.218V697.728L371.578 697.602L371.83 695.586C371.858 695.446 371.956 695.376 372.124 695.376H372.768V697.602H374.602V698.47H372.768V702.334C372.768 702.595 372.828 702.791 372.95 702.922C373.071 703.053 373.234 703.118 373.44 703.118C373.561 703.118 373.664 703.104 373.748 703.076C373.832 703.039 373.902 703.006 373.958 702.978C374.023 702.941 374.074 702.908 374.112 702.88C374.158 702.843 374.2 702.824 374.238 702.824C374.294 702.824 374.354 702.861 374.42 702.936L374.784 703.51C374.569 703.697 374.317 703.841 374.028 703.944C373.748 704.047 373.454 704.098 373.146 704.098ZM377.094 697.448V704H375.834V697.448H377.094ZM377.332 695.46C377.332 695.693 377.243 695.894 377.066 696.062C376.898 696.221 376.702 696.3 376.478 696.3C376.235 696.3 376.025 696.221 375.848 696.062C375.68 695.894 375.596 695.693 375.596 695.46C375.596 695.227 375.68 695.031 375.848 694.872C376.025 694.704 376.235 694.62 376.478 694.62C376.702 694.62 376.898 694.704 377.066 694.872C377.243 695.031 377.332 695.227 377.332 695.46ZM380.952 704.098C380.42 704.098 380.014 703.953 379.734 703.664C379.454 703.375 379.314 702.959 379.314 702.418V698.47H378.558C378.484 698.47 378.418 698.447 378.362 698.4C378.306 698.353 378.278 698.293 378.278 698.218V697.728L379.384 697.602L379.636 695.586C379.664 695.446 379.762 695.376 379.93 695.376H380.574V697.602H382.408V698.47H380.574V702.334C380.574 702.595 380.635 702.791 380.756 702.922C380.878 703.053 381.041 703.118 381.246 703.118C381.368 703.118 381.47 703.104 381.554 703.076C381.638 703.039 381.708 703.006 381.764 702.978C381.83 702.941 381.881 702.908 381.918 702.88C381.965 702.843 382.007 702.824 382.044 702.824C382.1 702.824 382.161 702.861 382.226 702.936L382.59 703.51C382.376 703.697 382.124 703.841 381.834 703.944C381.554 704.047 381.26 704.098 380.952 704.098ZM384.9 697.448V704H383.64V697.448H384.9ZM385.138 695.46C385.138 695.693 385.049 695.894 384.872 696.062C384.704 696.221 384.508 696.3 384.284 696.3C384.041 696.3 383.831 696.221 383.654 696.062C383.486 695.894 383.402 695.693 383.402 695.46C383.402 695.227 383.486 695.031 383.654 694.872C383.831 694.704 384.041 694.62 384.284 694.62C384.508 694.62 384.704 694.704 384.872 694.872C385.049 695.031 385.138 695.227 385.138 695.46ZM389.515 697.336C389.991 697.336 390.425 697.415 390.817 697.574C391.209 697.733 391.54 697.961 391.811 698.26C392.082 698.549 392.292 698.904 392.441 699.324C392.59 699.735 392.665 700.197 392.665 700.71C392.665 701.233 392.59 701.704 392.441 702.124C392.292 702.535 392.082 702.889 391.811 703.188C391.54 703.477 391.209 703.701 390.817 703.86C390.425 704.019 389.991 704.098 389.515 704.098C389.03 704.098 388.591 704.019 388.199 703.86C387.807 703.701 387.476 703.477 387.205 703.188C386.934 702.889 386.724 702.535 386.575 702.124C386.426 701.704 386.351 701.233 386.351 700.71C386.351 700.197 386.426 699.735 386.575 699.324C386.724 698.904 386.934 698.549 387.205 698.26C387.476 697.961 387.807 697.733 388.199 697.574C388.591 697.415 389.03 697.336 389.515 697.336ZM389.515 703.146C390.14 703.146 390.607 702.936 390.915 702.516C391.223 702.087 391.377 701.489 391.377 700.724C391.377 699.94 391.223 699.338 390.915 698.918C390.607 698.498 390.14 698.288 389.515 698.288C388.871 698.288 388.395 698.498 388.087 698.918C387.788 699.338 387.639 699.94 387.639 700.724C387.639 701.489 387.788 702.087 388.087 702.516C388.395 702.936 388.871 703.146 389.515 703.146ZM395.219 698.4C395.499 698.073 395.811 697.817 396.157 697.63C396.502 697.434 396.913 697.336 397.389 697.336C398.117 697.336 398.663 697.565 399.027 698.022C399.4 698.479 399.587 699.081 399.587 699.828V704H398.327V699.828C398.327 699.352 398.219 698.979 398.005 698.708C397.79 698.428 397.459 698.288 397.011 698.288C396.684 698.288 396.381 698.372 396.101 698.54C395.821 698.708 395.559 698.927 395.317 699.198V704H394.057V697.448H394.799C394.976 697.448 395.088 697.527 395.135 697.686L395.219 698.4ZM401.205 705.554C401.159 705.507 401.135 705.451 401.135 705.386C401.135 705.33 401.163 705.274 401.219 705.218C401.322 705.115 401.453 704.952 401.611 704.728C401.77 704.513 401.877 704.261 401.933 703.972C401.868 704 401.793 704.005 401.709 703.986C401.523 703.949 401.369 703.86 401.247 703.72C401.126 703.58 401.065 703.403 401.065 703.188C401.065 702.973 401.14 702.796 401.289 702.656C401.439 702.516 401.63 702.446 401.863 702.446C402.143 702.446 402.353 702.535 402.493 702.712C402.633 702.889 402.703 703.113 402.703 703.384C402.703 703.776 402.596 704.187 402.381 704.616C402.167 705.055 401.849 705.437 401.429 705.764L401.205 705.554ZM407.483 698.792C407.679 698.316 407.926 697.957 408.225 697.714C408.523 697.462 408.892 697.336 409.331 697.336C409.471 697.336 409.601 697.35 409.723 697.378C409.853 697.397 409.97 697.439 410.073 697.504L409.975 698.414C409.937 698.526 409.872 698.582 409.779 698.582C409.713 698.582 409.62 698.568 409.499 698.54C409.387 698.512 409.261 698.498 409.121 698.498C408.701 698.498 408.374 698.619 408.141 698.862C407.917 699.095 407.725 699.436 407.567 699.884V704H406.307V697.448H407.035C407.165 697.448 407.254 697.476 407.301 697.532C407.357 697.579 407.394 697.653 407.413 697.756L407.483 698.792ZM415.391 700.01C415.391 699.478 415.251 699.049 414.971 698.722C414.691 698.386 414.295 698.218 413.781 698.218C413.24 698.218 412.815 698.377 412.507 698.694C412.209 699.011 412.022 699.45 411.947 700.01H415.391ZM411.919 700.78C411.919 701.116 411.961 701.429 412.045 701.718C412.129 702.007 412.255 702.259 412.423 702.474C412.591 702.679 412.797 702.843 413.039 702.964C413.291 703.085 413.585 703.146 413.921 703.146C414.201 703.146 414.444 703.113 414.649 703.048C414.864 702.983 415.041 702.913 415.181 702.838C415.331 702.754 415.457 702.679 415.559 702.614C415.662 702.549 415.751 702.516 415.825 702.516C415.937 702.516 416.021 702.558 416.077 702.642L416.427 703.076C416.278 703.253 416.101 703.407 415.895 703.538C415.699 703.669 415.485 703.776 415.251 703.86C415.027 703.944 414.789 704.005 414.537 704.042C414.295 704.079 414.052 704.098 413.809 704.098C413.352 704.098 412.932 704.023 412.549 703.874C412.167 703.715 411.835 703.487 411.555 703.188C411.275 702.889 411.056 702.525 410.897 702.096C410.748 701.657 410.673 701.153 410.673 700.584C410.673 700.127 410.743 699.702 410.883 699.31C411.023 698.918 411.224 698.577 411.485 698.288C411.756 697.989 412.078 697.756 412.451 697.588C412.834 697.42 413.268 697.336 413.753 697.336C414.155 697.336 414.523 697.401 414.859 697.532C415.195 697.663 415.485 697.854 415.727 698.106C415.979 698.358 416.175 698.671 416.315 699.044C416.455 699.408 416.525 699.828 416.525 700.304C416.525 700.491 416.502 700.617 416.455 700.682C416.418 700.747 416.339 700.78 416.217 700.78H411.919ZM421.401 701.06C420.888 701.079 420.454 701.121 420.099 701.186C419.745 701.251 419.455 701.34 419.231 701.452C419.007 701.555 418.844 701.681 418.741 701.83C418.639 701.97 418.587 702.129 418.587 702.306C418.587 702.642 418.685 702.889 418.881 703.048C419.087 703.197 419.334 703.272 419.623 703.272C420.025 703.272 420.361 703.193 420.631 703.034C420.902 702.875 421.159 702.665 421.401 702.404V701.06ZM417.705 698.358C418.424 697.677 419.292 697.336 420.309 697.336C421.065 697.336 421.639 697.565 422.031 698.022C422.433 698.479 422.633 699.077 422.633 699.814V704H422.087C421.957 704 421.859 703.986 421.793 703.958C421.737 703.921 421.686 703.841 421.639 703.72L421.541 703.09C421.196 703.417 420.855 703.669 420.519 703.846C420.183 704.014 419.759 704.098 419.245 704.098C418.984 704.098 418.741 704.065 418.517 704C418.293 703.925 418.097 703.818 417.929 703.678C417.761 703.538 417.631 703.361 417.537 703.146C417.444 702.922 417.397 702.661 417.397 702.362C417.397 702.11 417.467 701.863 417.607 701.62C417.747 701.377 417.971 701.163 418.279 700.976C418.597 700.789 419.007 700.635 419.511 700.514C420.025 700.393 420.655 700.323 421.401 700.304V699.814C421.401 698.797 420.986 698.288 420.155 698.288C419.885 698.288 419.656 698.325 419.469 698.4C419.283 698.465 419.119 698.545 418.979 698.638C418.849 698.722 418.732 698.801 418.629 698.876C418.527 698.941 418.419 698.974 418.307 698.974C418.214 698.974 418.135 698.955 418.069 698.918C418.013 698.871 417.967 698.815 417.929 698.75L417.705 698.358ZM425.614 694.578V704H424.354V694.578H425.614ZM430.713 702.404C430.919 702.684 431.138 702.88 431.371 702.992C431.614 703.104 431.885 703.16 432.183 703.16C432.771 703.16 433.224 702.945 433.541 702.516C433.859 702.087 434.017 701.475 434.017 700.682C434.017 699.833 433.873 699.221 433.583 698.848C433.303 698.475 432.911 698.288 432.407 698.288C432.043 698.288 431.721 698.377 431.441 698.554C431.171 698.722 430.928 698.96 430.713 699.268V702.404ZM430.629 698.456C430.9 698.111 431.217 697.84 431.581 697.644C431.945 697.439 432.361 697.336 432.827 697.336C433.583 697.336 434.185 697.621 434.633 698.19C435.081 698.759 435.305 699.59 435.305 700.682C435.305 701.158 435.24 701.606 435.109 702.026C434.979 702.437 434.792 702.796 434.549 703.104C434.307 703.412 434.008 703.655 433.653 703.832C433.308 704.009 432.911 704.098 432.463 704.098C432.071 704.098 431.735 704.033 431.455 703.902C431.175 703.762 430.928 703.571 430.713 703.328V706.212H429.453V697.448H430.195C430.373 697.448 430.485 697.527 430.531 697.686L430.629 698.456ZM437.889 698.792C438.085 698.316 438.332 697.957 438.631 697.714C438.93 697.462 439.298 697.336 439.737 697.336C439.877 697.336 440.008 697.35 440.129 697.378C440.26 697.397 440.376 697.439 440.479 697.504L440.381 698.414C440.344 698.526 440.278 698.582 440.185 698.582C440.12 698.582 440.026 698.568 439.905 698.54C439.793 698.512 439.667 698.498 439.527 698.498C439.107 698.498 438.78 698.619 438.547 698.862C438.323 699.095 438.132 699.436 437.973 699.884V704H436.713V697.448H437.441C437.572 697.448 437.66 697.476 437.707 697.532C437.763 697.579 437.8 697.653 437.819 697.756L437.889 698.792ZM442.76 697.448V704H441.5V697.448H442.76ZM442.998 695.46C442.998 695.693 442.909 695.894 442.732 696.062C442.564 696.221 442.368 696.3 442.144 696.3C441.901 696.3 441.691 696.221 441.514 696.062C441.346 695.894 441.262 695.693 441.262 695.46C441.262 695.227 441.346 695.031 441.514 694.872C441.691 694.704 441.901 694.62 442.144 694.62C442.368 694.62 442.564 694.704 442.732 694.872C442.909 695.031 442.998 695.227 442.998 695.46ZM449.152 697.938C449.152 698.143 449.092 698.297 448.97 698.4L445.512 703.062H449.04V704H444.042V703.51C444.042 703.379 444.103 703.23 444.224 703.062L447.696 698.386H444.252V697.448H449.152V697.938ZM454.78 700.01C454.78 699.478 454.64 699.049 454.36 698.722C454.08 698.386 453.683 698.218 453.17 698.218C452.629 698.218 452.204 698.377 451.896 698.694C451.597 699.011 451.411 699.45 451.336 700.01H454.78ZM451.308 700.78C451.308 701.116 451.35 701.429 451.434 701.718C451.518 702.007 451.644 702.259 451.812 702.474C451.98 702.679 452.185 702.843 452.428 702.964C452.68 703.085 452.974 703.146 453.31 703.146C453.59 703.146 453.833 703.113 454.038 703.048C454.253 702.983 454.43 702.913 454.57 702.838C454.719 702.754 454.845 702.679 454.948 702.614C455.051 702.549 455.139 702.516 455.214 702.516C455.326 702.516 455.41 702.558 455.466 702.642L455.816 703.076C455.667 703.253 455.489 703.407 455.284 703.538C455.088 703.669 454.873 703.776 454.64 703.86C454.416 703.944 454.178 704.005 453.926 704.042C453.683 704.079 453.441 704.098 453.198 704.098C452.741 704.098 452.321 704.023 451.938 703.874C451.555 703.715 451.224 703.487 450.944 703.188C450.664 702.889 450.445 702.525 450.286 702.096C450.137 701.657 450.062 701.153 450.062 700.584C450.062 700.127 450.132 699.702 450.272 699.31C450.412 698.918 450.613 698.577 450.874 698.288C451.145 697.989 451.467 697.756 451.84 697.588C452.223 697.42 452.657 697.336 453.142 697.336C453.543 697.336 453.912 697.401 454.248 697.532C454.584 697.663 454.873 697.854 455.116 698.106C455.368 698.358 455.564 698.671 455.704 699.044C455.844 699.408 455.914 699.828 455.914 700.304C455.914 700.491 455.891 700.617 455.844 700.682C455.807 700.747 455.727 700.78 455.606 700.78H451.308ZM461.14 698.554C461.065 698.647 460.977 698.694 460.874 698.694C460.799 698.694 460.72 698.671 460.636 698.624C460.561 698.577 460.463 698.526 460.342 698.47C460.23 698.414 460.095 698.363 459.936 698.316C459.777 698.269 459.586 698.246 459.362 698.246C458.979 698.246 458.681 698.335 458.466 698.512C458.261 698.68 458.158 698.895 458.158 699.156C458.158 699.38 458.237 699.557 458.396 699.688C458.564 699.809 458.774 699.917 459.026 700.01C459.278 700.103 459.544 700.192 459.824 700.276C460.113 700.36 460.384 700.472 460.636 700.612C460.888 700.743 461.093 700.92 461.252 701.144C461.42 701.359 461.504 701.643 461.504 701.998C461.504 702.297 461.448 702.577 461.336 702.838C461.233 703.09 461.075 703.309 460.86 703.496C460.645 703.683 460.379 703.832 460.062 703.944C459.754 704.047 459.399 704.098 458.998 704.098C458.55 704.098 458.135 704.023 457.752 703.874C457.369 703.725 457.047 703.533 456.786 703.3L457.08 702.852C457.127 702.796 457.169 702.754 457.206 702.726C457.253 702.689 457.323 702.67 457.416 702.67C457.5 702.67 457.584 702.703 457.668 702.768C457.752 702.824 457.855 702.889 457.976 702.964C458.097 703.029 458.242 703.095 458.41 703.16C458.587 703.216 458.802 703.244 459.054 703.244C459.502 703.244 459.824 703.141 460.02 702.936C460.225 702.731 460.328 702.488 460.328 702.208C460.328 701.975 460.244 701.793 460.076 701.662C459.908 701.522 459.698 701.405 459.446 701.312C459.203 701.219 458.937 701.13 458.648 701.046C458.359 700.962 458.088 700.85 457.836 700.71C457.593 700.57 457.388 700.388 457.22 700.164C457.052 699.931 456.968 699.627 456.968 699.254C456.968 699.002 457.019 698.759 457.122 698.526C457.225 698.293 457.374 698.092 457.57 697.924C457.775 697.747 458.023 697.607 458.312 697.504C458.611 697.392 458.951 697.336 459.334 697.336C459.773 697.336 460.165 697.406 460.51 697.546C460.855 697.677 461.154 697.863 461.406 698.106L461.14 698.554ZM463.665 704C463.123 704 462.853 703.715 462.853 703.146C462.853 702.567 463.123 702.278 463.665 702.278C464.197 702.278 464.463 702.567 464.463 703.146C464.463 703.715 464.197 704 463.665 704ZM466.96 704C466.418 704 466.148 703.715 466.148 703.146C466.148 702.567 466.418 702.278 466.96 702.278C467.492 702.278 467.758 702.567 467.758 703.146C467.758 703.715 467.492 704 466.96 704Z" fill="white"/>
<path opacity="0.69" d="M202.06 700.888L210.968 702.513L212.425 710.929C212.425 710.948 212.433 710.966 212.448 710.979C212.462 710.993 212.481 711 212.501 711C212.521 711 212.54 710.993 212.555 710.979C212.569 710.966 212.577 710.948 212.577 710.929L214.031 702.513L222.942 700.888C222.959 700.884 222.973 700.875 222.984 700.863C222.994 700.85 223 700.835 223 700.819C223 700.803 222.994 700.787 222.984 700.775C222.973 700.762 222.959 700.753 222.942 700.75L214.031 699.093L212.577 691.071C212.577 691.052 212.569 691.034 212.555 691.021C212.54 691.007 212.521 691 212.501 691C212.481 691 212.462 691.007 212.448 691.021C212.433 691.034 212.425 691.052 212.425 691.071L210.968 699.093L202.056 700.75C202.04 700.754 202.025 700.763 202.015 700.776C202.005 700.789 202 700.804 202 700.82C202.001 700.836 202.007 700.851 202.018 700.864C202.029 700.876 202.044 700.884 202.06 700.888Z" fill="#E4E4E4"/>
<path opacity="0.69" d="M490.057 700.888L498.541 702.513L499.929 710.929C499.929 710.948 499.937 710.966 499.95 710.979C499.964 710.993 499.982 711 500.001 711C500.02 711 500.038 710.993 500.052 710.979C500.066 710.966 500.073 710.948 500.073 710.929L501.458 702.513L509.945 700.888C509.961 700.884 509.975 700.875 509.985 700.863C509.995 700.85 510 700.835 510 700.819C510 700.803 509.995 700.787 509.985 700.775C509.975 700.762 509.961 700.753 509.945 700.75L501.458 699.093L500.073 691.071C500.073 691.052 500.066 691.034 500.052 691.021C500.038 691.007 500.02 691 500.001 691C499.982 691 499.964 691.007 499.95 691.021C499.937 691.034 499.929 691.052 499.929 691.071L498.541 699.093L490.053 700.75C490.038 700.754 490.024 700.763 490.014 700.776C490.005 700.789 490 700.804 490 700.82C490 700.836 490.006 700.851 490.017 700.864C490.027 700.876 490.041 700.884 490.057 700.888Z" fill="#E4E4E4"/>
<path opacity="0.69" d="M22.0573 700.888L30.5405 702.513L31.929 710.929C31.929 710.948 31.9366 710.966 31.9501 710.979C31.9636 710.993 31.982 711 32.0011 711C32.0202 711 32.0385 710.993 32.052 710.979C32.0655 710.966 32.0731 710.948 32.0731 710.929L33.4576 702.513L41.9448 700.888C41.9606 700.884 41.9745 700.875 41.9846 700.863C41.9946 700.85 42 700.835 42 700.819C42 700.803 41.9946 700.787 41.9846 700.775C41.9745 700.762 41.9606 700.753 41.9448 700.75L33.4576 699.093L32.0731 691.071C32.0731 691.052 32.0655 691.034 32.052 691.021C32.0385 691.007 32.0202 691 32.0011 691C31.982 691 31.9636 691.007 31.9501 691.021C31.9366 691.034 31.929 691.052 31.929 691.071L30.5405 699.093L22.0533 700.75C22.0377 700.754 22.0239 700.763 22.0142 700.776C22.0046 700.789 21.9996 700.804 22 700.82C22.0005 700.836 22.0064 700.851 22.0168 700.864C22.0272 700.876 22.0414 700.884 22.0573 700.888Z" fill="#E4E4E4"/>
<defs>
<linearGradient id="paint0_linear_3814_6169" x1="266" y1="0" x2="266" y2="40" gradientUnits="userSpaceOnUse">
<stop stop-color="white" stop-opacity="0.51"/>
<stop offset="1" stop-color="white" stop-opacity="0"/>
</linearGradient>
</defs>
</svg>
